<svg width="410" height="231" viewBox="0 0 410 231" fill="none" xmlns="http://www.w3.org/2000/svg">
<path d="M71.9909 198.772C63.8289 198.772 56.2059 197.771 49.1219 195.769C42.0379 193.767 35.7239 190.995 30.1799 187.453C24.6359 183.757 20.0159 179.676 16.3199 175.21C12.7779 170.744 10.4679 166.047 9.3899 161.119L40.3439 151.879C42.3459 157.115 45.8879 161.658 50.9699 165.508C56.0519 169.204 62.4429 171.129 70.1429 171.283C78.3049 171.437 84.9269 169.666 90.0089 165.97C95.2449 162.274 97.8629 157.5 97.8629 151.648C97.8629 146.566 95.7839 142.331 91.6259 138.943C87.6219 135.401 82.0779 132.706 74.9939 130.858L53.9729 125.314C46.1189 123.312 39.1889 120.309 33.1829 116.305C27.1769 112.147 22.4799 107.065 19.0919 101.059C15.7039 95.053 14.0099 88.046 14.0099 80.038C14.0099 64.792 19.0149 52.934 29.0249 44.464C39.1889 35.84 53.5109 31.528 71.9909 31.528C82.3089 31.528 91.3179 33.068 99.0179 36.148C106.872 39.074 113.417 43.309 118.653 48.853C123.889 54.397 127.893 60.942 130.665 68.488L99.9419 77.959C98.0939 72.723 94.7059 68.257 89.7779 64.561C84.8499 60.865 78.6129 59.017 71.0669 59.017C63.3669 59.017 57.2839 60.788 52.8179 64.33C48.5059 67.872 46.3499 72.877 46.3499 79.345C46.3499 84.427 48.0439 88.431 51.4319 91.357C54.9739 94.283 59.7479 96.516 65.7539 98.056L87.0059 103.369C100.866 106.757 111.646 112.84 119.346 121.618C127.046 130.396 130.896 140.175 130.896 150.955C130.896 160.503 128.586 168.896 123.966 176.134C119.346 183.218 112.647 188.762 103.869 192.766C95.0909 196.77 84.4649 198.772 71.9909 198.772ZM213.46 198.772C197.136 198.772 182.66 195.23 170.032 188.146C157.558 180.908 147.779 171.052 140.695 158.578C133.611 145.95 130.069 131.474 130.069 115.15C130.069 102.984 132.071 91.819 136.075 81.655C140.233 71.337 145.931 62.482 153.169 55.09C160.561 47.544 169.262 41.769 179.272 37.765C189.436 33.607 200.601 31.528 212.767 31.528C229.091 31.528 243.413 35.147 255.733 42.385C268.207 49.469 277.986 59.325 285.07 71.953C292.154 84.427 295.696 98.903 295.696 115.381C295.696 131.551 292.154 145.95 285.07 158.578C278.14 171.052 268.438 180.908 255.964 188.146C243.644 195.23 229.476 198.772 213.46 198.772ZM273.982 205.702L214.384 145.18L234.712 126.007L293.848 186.067L273.982 205.702ZM213.46 169.897C223.316 169.897 231.94 167.587 239.332 162.967C246.878 158.193 252.73 151.725 256.888 143.563C261.2 135.401 263.356 125.93 263.356 115.15C263.356 104.524 261.2 95.13 256.888 86.968C252.576 78.652 246.647 72.184 239.101 67.564C231.555 62.79 222.777 60.403 212.767 60.403C203.065 60.403 194.364 62.79 186.664 67.564C179.118 72.184 173.189 78.652 168.877 86.968C164.565 95.13 162.409 104.524 162.409 115.15C162.409 125.93 164.565 135.401 168.877 143.563C173.189 151.725 179.195 158.193 186.895 162.967C194.595 167.587 203.45 169.897 213.46 169.897ZM303.334 196V34.3H334.981V167.125H406.129V196H303.334Z" fill="#352DC3"/>
<path d="M359.889 158.612C357.068 158.612 354.926 157.915 353.464 156.521C352.036 155.127 351.323 153.139 351.323 150.555V124.549H358.054V149.076C358.054 150.164 358.292 150.997 358.767 151.575C359.243 152.119 359.94 152.391 360.858 152.391C361.198 152.391 361.572 152.323 361.98 152.187C362.388 152.017 362.813 151.779 363.255 151.473L365.6 156.521C364.785 157.133 363.867 157.626 362.847 158C361.861 158.408 360.875 158.612 359.889 158.612ZM347.192 138.215V132.504H364.428V138.215H347.192ZM387.607 158L387.25 153.258V122.305H393.981V158H387.607ZM379.601 158.612C377.255 158.612 375.215 158.068 373.482 156.98C371.782 155.892 370.456 154.346 369.504 152.34C368.552 150.334 368.076 147.971 368.076 145.252C368.076 142.498 368.552 140.136 369.504 138.164C370.456 136.158 371.782 134.611 373.482 133.524C375.215 132.436 377.255 131.892 379.601 131.892C381.742 131.892 383.544 132.436 385.006 133.524C386.502 134.611 387.641 136.158 388.422 138.164C389.204 140.136 389.595 142.498 389.595 145.252C389.595 147.971 389.204 150.334 388.422 152.34C387.641 154.346 386.502 155.892 385.006 156.98C383.544 158.068 381.742 158.612 379.601 158.612ZM381.334 152.442C382.49 152.442 383.51 152.136 384.394 151.524C385.312 150.912 386.026 150.062 386.536 148.974C387.046 147.886 387.301 146.646 387.301 145.252C387.301 143.858 387.046 142.617 386.536 141.529C386.026 140.442 385.312 139.609 384.394 139.031C383.51 138.419 382.473 138.113 381.283 138.113C380.06 138.113 378.989 138.419 378.071 139.031C377.153 139.609 376.422 140.442 375.878 141.529C375.334 142.617 375.062 143.858 375.062 145.252C375.062 146.646 375.334 147.886 375.878 148.974C376.422 150.062 377.153 150.912 378.071 151.524C379.023 152.136 380.111 152.442 381.334 152.442ZM403.196 158.765C402.074 158.765 401.106 158.357 400.29 157.541C399.508 156.725 399.117 155.756 399.117 154.634C399.117 153.547 399.508 152.595 400.29 151.779C401.106 150.963 402.074 150.555 403.196 150.555C404.318 150.555 405.27 150.963 406.052 151.779C406.868 152.595 407.276 153.547 407.276 154.634C407.276 155.756 406.868 156.725 406.052 157.541C405.27 158.357 404.318 158.765 403.196 158.765Z" fill="#352DC3"/>
<path d="M191 143L199 106.5L239 106.5" stroke="#352DC3" stroke-width="20"/>
<line x1="202.652" y1="113.439" x2="261.915" y2="173.212" stroke="#352DC3" stroke-width="30"/>
</svg>
