<svg width="517" height="193" viewBox="0 0 517 193" fill="none" xmlns="http://www.w3.org/2000/svg">
<path d="M318.984 27.5798L332.991 25.9221L330.659 6.17999L290.168 10.9628L282.569 55.1268L302.16 58.4899L305.024 41.7618C325.971 65.0653 334.316 92.1522 325.821 111.514C323.354 117.129 316.081 130.574 301.74 134.198C299.67 134.73 297.536 135.023 295.395 135.126C297.949 130.724 299.535 125.807 299.733 120.389C300.177 108.698 293.769 91.0814 278.175 88.5115C272.067 87.5042 265.619 89.2095 260.011 93.2944C253.356 98.1645 248.7 105.731 247.574 113.512C245.869 125.204 252.325 134.127 257.06 139.164C256.45 139.314 255.855 139.425 255.307 139.513C253.8 139.743 252.627 139.711 252.309 139.695C245.869 139.33 240.88 134.079 239.246 132.342C233.931 126.743 231.163 113.148 237.62 96.5702L241.229 87.3138L222.716 80.0959L219.107 89.3523C210.612 111.149 212.849 133.381 224.818 146.017C232.837 154.464 241.712 159.001 251.215 159.532C251.699 159.564 252.262 159.58 252.904 159.58C254.379 159.58 256.251 159.477 258.369 159.152C264.112 158.255 270.87 155.908 277.247 152.259C286.519 155.392 296.902 155.939 306.642 153.465C329.461 147.651 340.376 127.766 344.016 119.485C355.938 92.295 346.102 57.1177 318.976 27.564L318.984 27.5798ZM279.888 119.667C279.769 123.078 277.953 126.259 275.288 129.027C274.843 128.678 274.407 128.313 273.995 127.932C271.956 126.06 266.563 121.095 267.237 116.392C267.602 113.925 269.458 111.046 271.742 109.356C273.019 108.428 274.058 108.111 274.709 108.111C274.812 108.111 274.891 108.111 274.954 108.127C277.159 108.492 280.086 114.52 279.888 119.667Z" fill="#352DC3"/>
<path d="M0 159.07V0H22.48V159.07H0ZM69.14 85.9C69.14 78.76 67.37 73.27 63.84 69.41C60.3 65.56 55.36 63.63 48.99 63.63C31.31 63.63 22.48 74.38 22.48 95.87L15.9 67.03H24.6C25.24 59.47 27.99 53.83 32.87 50.12C37.75 46.41 44.89 44.55 54.29 44.55C66.17 44.55 75.36 48.15 81.86 55.37C88.36 62.58 91.62 72.76 91.62 85.91V159.08H69.14V85.9Z" fill="#352DC3"/>
<path d="M108.53 159.18V84.5618H132.285V159.18H108.53ZM120.432 75.8661C117.096 75.8661 114.23 74.7649 111.833 72.5627C109.437 70.328 108.238 67.6399 108.238 64.4985C108.238 61.3894 109.437 58.7337 111.833 56.5314C114.23 54.2967 117.096 53.1794 120.432 53.1794C123.8 53.1794 126.666 54.2967 129.03 56.5314C131.427 58.7337 132.625 61.3894 132.625 64.4985C132.625 67.6399 131.427 70.328 129.03 72.5627C126.666 74.7649 123.8 75.8661 120.432 75.8661ZM195.159 109.775V128.089H149.106V109.775H195.159Z" fill="#352DC3"/>
<path d="M386.565 160.443C381.804 160.443 377.578 159.65 373.886 158.063C370.226 156.443 367.327 154.014 365.19 150.776C363.085 147.505 362.032 143.408 362.032 138.485C362.032 134.34 362.761 130.842 364.218 127.992C365.676 125.142 367.684 122.826 370.242 121.045C372.801 119.264 375.748 117.92 379.084 117.013C382.419 116.074 385.982 115.442 389.771 115.118C394.014 114.73 397.43 114.325 400.021 113.904C402.612 113.45 404.491 112.819 405.657 112.009C406.855 111.167 407.454 109.985 407.454 108.463V108.22C407.454 105.726 406.596 103.799 404.879 102.439C403.163 101.079 400.847 100.399 397.932 100.399C394.791 100.399 392.265 101.079 390.354 102.439C388.443 103.799 387.229 105.678 386.711 108.074L364.801 107.297C365.449 102.763 367.117 98.7146 369.805 95.1521C372.525 91.5573 376.25 88.7397 380.978 86.6993C385.739 84.6266 391.455 83.5902 398.127 83.5902C402.888 83.5902 407.276 84.157 411.292 85.2905C415.308 86.3916 418.805 88.011 421.785 90.1485C424.764 92.2536 427.064 94.8445 428.683 97.9212C430.335 100.998 431.161 104.512 431.161 108.463V159.18H408.814V148.784H408.231C406.903 151.31 405.203 153.448 403.13 155.196C401.09 156.945 398.677 158.257 395.892 159.131C393.139 160.006 390.03 160.443 386.565 160.443ZM393.9 144.898C396.459 144.898 398.758 144.379 400.799 143.343C402.871 142.307 404.523 140.882 405.754 139.068C406.984 137.222 407.6 135.085 407.6 132.656V125.563C406.92 125.919 406.094 126.243 405.122 126.535C404.183 126.826 403.147 127.101 402.013 127.36C400.88 127.619 399.714 127.846 398.515 128.041C397.317 128.235 396.167 128.413 395.066 128.575C392.832 128.931 390.921 129.482 389.334 130.227C387.779 130.971 386.581 131.943 385.739 133.141C384.929 134.307 384.524 135.7 384.524 137.319C384.524 139.781 385.399 141.659 387.148 142.954C388.929 144.25 391.18 144.898 393.9 144.898ZM457.539 187.162C454.689 187.162 452.001 186.935 449.475 186.482C446.949 186.061 444.779 185.494 442.966 184.781L448.212 167.536C450.544 168.313 452.649 168.766 454.528 168.896C456.438 169.025 458.074 168.718 459.434 167.973C460.827 167.26 461.895 165.981 462.64 164.135L463.563 161.9L437.039 84.5618H461.912L475.66 137.805H476.437L490.379 84.5618H515.398L487.27 166.321C485.91 170.402 483.983 173.997 481.489 177.106C479.028 180.247 475.838 182.709 471.919 184.49C468.033 186.271 463.239 187.162 457.539 187.162Z" fill="#352DC3"/>
</svg>
