<svg width="247" height="247" viewBox="0 0 247 247" fill="none" xmlns="http://www.w3.org/2000/svg">
<path d="M123.2 246.4C191.241 246.4 246.4 191.241 246.4 123.2C246.4 55.1585 191.241 0 123.2 0C55.1585 0 0 55.1585 0 123.2C0 191.241 55.1585 246.4 123.2 246.4Z" fill="#352DC3"/>
<path d="M44.93 174.29V76.7H58.72V174.29H44.93ZM87.35 174.29V129.4C87.35 125.02 86.27 121.65 84.1 119.28C81.93 116.92 78.89 115.73 74.99 115.73C64.15 115.73 58.72 122.32 58.72 135.51L54.69 117.81H60.03C60.42 113.17 62.11 109.71 65.11 107.43C68.1 105.15 72.48 104.01 78.25 104.01C85.54 104.01 91.17 106.22 95.17 110.65C99.16 115.07 101.16 121.32 101.16 129.39V174.28H87.37L87.35 174.29Z" fill="white"/>
<path d="M187.05 74.34L197.89 73.06L196.08 57.79L164.76 61.49L158.88 95.65L174.03 98.25L176.25 85.31C192.45 103.33 198.91 124.29 192.34 139.26C190.43 143.6 184.81 154 173.71 156.81C172.11 157.22 170.46 157.45 168.8 157.53C170.77 154.12 172 150.32 172.16 146.13C172.51 137.09 167.55 123.46 155.48 121.47C150.75 120.69 145.77 122.01 141.43 125.17C136.28 128.94 132.68 134.79 131.81 140.81C130.49 149.85 135.49 156.76 139.15 160.65C138.68 160.77 138.21 160.85 137.79 160.92C136.62 161.1 135.71 161.07 135.47 161.06C130.49 160.78 126.63 156.72 125.36 155.37C121.25 151.04 119.11 140.52 124.1 127.7L126.89 120.54L112.57 114.95L109.78 122.11C103.21 138.97 104.94 156.17 114.2 165.94C120.4 172.47 127.27 175.98 134.62 176.39C134.99 176.42 135.43 176.43 135.93 176.43C137.07 176.43 138.52 176.35 140.16 176.1C144.6 175.41 149.83 173.59 154.76 170.77C161.93 173.19 169.96 173.61 177.5 171.71C195.15 167.21 203.59 151.83 206.41 145.42C215.63 124.39 208.02 97.18 187.04 74.31L187.05 74.34ZM156.81 145.57C156.72 148.21 155.31 150.67 153.25 152.81C152.9 152.54 152.57 152.26 152.25 151.96C150.67 150.51 146.5 146.67 147.02 143.03C147.3 141.12 148.74 138.89 150.5 137.59C151.49 136.87 152.29 136.63 152.79 136.63C152.87 136.63 152.93 136.63 152.98 136.64C154.68 136.92 156.95 141.58 156.8 145.57H156.81Z" fill="white"/>
</svg>
